<svg xmlns="http://www.w3.org/2000/svg" viewBox="0 0 480 320" width="480" height="320"><rect x="0" y="0" width="100%" height="100%" fill="#808080"/><g fill="#ffffff" fill-opacity="0.24"><polygon points="226,-243 643,174 636,181 219,-236"/><polygon points="212,-229 629,188 622,195 205,-222"/><polygon points="198,-215 615,202 608,209 191,-208"/><polygon points="183,-201 601,217 594,224 176,-194"/><polygon points="169,-186 586,231 579,238 162,-179"/><polygon points="155,-172 572,245 565,252 148,-165"/><polygon points="141,-158 558,259 551,266 134,-151"/><polygon points="127,-144 544,273 537,280 120,-137"/><polygon points="113,-130 530,287 523,294 106,-123"/><polygon points="99,-116 516,301 509,308 92,-109"/><polygon points="84,-102 502,316 495,323 77,-95"/><polygon points="70,-87 487,330 480,337 63,-80"/><polygon points="56,-73 473,344 466,351 49,-66"/><polygon points="42,-59 459,358 452,365 35,-52"/><polygon points="28,-45 445,372 438,379 21,-38"/><polygon points="14,-31 431,386 424,393 7,-24"/><polygon points="0,-17 417,400 410,407 -7,-10"/><polygon points="-15,-3 403,415 396,422 -22,4"/><polygon points="-29,12 388,429 381,436 -36,19"/><polygon points="-43,26 374,443 367,450 -50,33"/><polygon points="-57,40 360,457 353,464 -64,47"/><polygon points="-71,54 346,471 339,478 -78,61"/><polygon points="-85,68 332,485 325,492 -92,75"/><polygon points="-99,82 318,499 311,506 -106,89"/><polygon points="-114,96 304,514 297,521 -121,103"/><polygon points="-128,111 289,528 282,535 -135,118"/><polygon points="-142,125 275,542 268,549 -149,132"/><polygon points="-156,139 261,556 254,563 -163,146"/></g><g text-anchor="middle" font-family="&quot;MS PGothic&quot;, sans-serif" font-size="32pt"><g fill="#000000" fill-opacity="0.24"><text dominant-baseline="central" x="50%" y="50%" dx="0.05em" dy="-0.55em">SVG</text><text dominant-baseline="central" x="50%" y="50%" dx="0.05em" dy="0.65em">480 x 320</text></g><g fill="#ffffff"><text dominant-baseline="central" x="50%" y="50%" dy="-0.6em">SVG</text><text dominant-baseline="central" x="50%" y="50%" dy="0.6em">480 x 320</text></g></g></svg>